HIERARCHY
ROOT Hips
{
	OFFSET 44.178501 -5.202806 98.600098
	CHANNELS 6 Xposition Yposition Zposition Xrotation Yrotation Zrotation
	JOINT spine
	{
		OFFSET 0.000000 -0.477353 8.301041
		CHANNELS 3 Xrotation Yrotation Zrotation
		JOINT spine1
		{
			OFFSET 0.000000 -0.000001 10.456497
			CHANNELS 3 Xrotation Yrotation Zrotation
			JOINT spine2
			{
				OFFSET 0.000000 -0.000002 10.019203
				CHANNELS 3 Xrotation Yrotation Zrotation
				JOINT Neck
				{
					OFFSET 0.000000 -1.226414 25.723503
					CHANNELS 3 Xrotation Yrotation Zrotation
					JOINT Head
					{
						OFFSET 0.000000 -0.000001 7.771744
						CHANNELS 3 Xrotation Yrotation Zrotation
						End Site
						{
							OFFSET 0.000000 6.203937 18.811996
						}
					}
				}
				JOINT RightShoulder
				{
					OFFSET -4.218800 0.587438 10.820000
					CHANNELS 3 Xrotation Yrotation Zrotation
					JOINT RightArm
					{
						OFFSET 0.000000 -0.000002 14.191406
						CHANNELS 3 Xrotation Yrotation Zrotation
						JOINT RightArmRoll
						{
							OFFSET 0.000000 -0.000001 7.164078
							CHANNELS 3 Xrotation Yrotation Zrotation
							JOINT RightForeArm
							{
								OFFSET 0.000000 -0.000003 20.866501
								CHANNELS 3 Xrotation Yrotation Zrotation
								JOINT RightForeArmRoll
								{
									OFFSET 0.000000 -0.000001 8.039215
									CHANNELS 3 Xrotation Yrotation Zrotation
									JOINT RightHand
									{
										OFFSET 0.000000 -0.000003 16.132996
										CHANNELS 3 Xrotation Yrotation Zrotation
										End Site
										{
											OFFSET 0.000000 0.000000 0.100006
										}
									}
								}
							}
						}
					}
				}
				JOINT LeftShoulder
				{
					OFFSET 4.218800 0.587438 10.820000
					CHANNELS 3 Xrotation Yrotation Zrotation
					JOINT LeftArm
					{
						OFFSET 0.000000 -0.000002 14.191406
						CHANNELS 3 Xrotation Yrotation Zrotation
						JOINT LeftArmRoll
						{
							OFFSET 0.000000 -0.000001 7.164078
							CHANNELS 3 Xrotation Yrotation Zrotation
							JOINT LeftForeArm
							{
								OFFSET 0.000000 -0.000003 20.866501
								CHANNELS 3 Xrotation Yrotation Zrotation
								JOINT LeftForeArmRoll
								{
									OFFSET 0.000000 -0.000001 8.039215
									CHANNELS 3 Xrotation Yrotation Zrotation
									JOINT LeftHand
									{
										OFFSET 0.000000 -0.000003 16.132996
										CHANNELS 3 Xrotation Yrotation Zrotation
										End Site
										{
											OFFSET 0.000000 0.000000 0.100006
										}
									}
								}
							}
						}
					}
				}
			}
		}
	}
	JOINT RightUpLeg
	{
		OFFSET -7.357731 1.131821 -1.349213
		CHANNELS 3 Xrotation Yrotation Zrotation
		JOINT RightUpLegRoll
		{
			OFFSET 0.000000 -0.000003 18.916801
			CHANNELS 3 Xrotation Yrotation Zrotation
			JOINT RightLeg
			{
				OFFSET 0.000000 0.000004 -23.425598
				CHANNELS 3 Xrotation Yrotation Zrotation
				JOINT RightLegRoll
				{
					OFFSET 0.000000 -0.000004 23.502296
					CHANNELS 3 Xrotation Yrotation Zrotation
					JOINT RightFoot
					{
						OFFSET 0.000000 -0.000003 19.561707
						CHANNELS 3 Xrotation Yrotation Zrotation
						JOINT RightToeBase
						{
							OFFSET 0.000000 -0.000003 16.352600
							CHANNELS 3 Xrotation Yrotation Zrotation
							End Site
							{
								OFFSET 0.006931 0.912836 7.919434
							}
						}
					}
				}
			}
		}
	}
	JOINT LeftUpLeg
	{
		OFFSET 7.357731 1.131821 -1.349213
		CHANNELS 3 Xrotation Yrotation Zrotation
		JOINT LeftUpLegRoll
		{
			OFFSET 0.000000 -0.000003 18.916901
			CHANNELS 3 Xrotation Yrotation Zrotation
			JOINT LeftLeg
			{
				OFFSET 0.000000 -0.000004 23.425507
				CHANNELS 3 Xrotation Yrotation Zrotation
				JOINT LeftLegRoll
				{
					OFFSET 0.000000 -0.000004 23.719498
					CHANNELS 3 Xrotation Yrotation Zrotation
					JOINT LeftFoot
					{
						OFFSET 0.000000 -0.000003 19.344406
						CHANNELS 3 Xrotation Yrotation Zrotation
						JOINT LeftToeBase
						{
							OFFSET 0.000000 -0.000003 16.352600
							CHANNELS 3 Xrotation Yrotation Zrotation
							End Site
							{
								OFFSET -0.031063 0.912836 7.919434
							}
						}
					}
				}
			}
		}
	}
}
MOTION
Frames: 13
Frame Time: 0.041667
59.814899 -14.068518 99.348625 -8.197946 0.785356 95.273940 -0.519345 0.570508 0.771045 2.956662 1.146931 1.543336 4.601633 1.165331 1.529513 0.013513 25.084502 -7.504123 5.885176 -29.930306 -7.006361 -0.409540 -28.303590 4.081662 112.831467 3.482697 119.751152 -0.000008 -0.000008 -0.000011 33.617173 7.183457 -0.074378 0.000008 0.000001 -3.008962 -4.999631 -7.998741 -0.000074 -29.210400 67.399193 33.969136 93.456044 64.594629 -88.006830 0.000001 -0.000004 -0.000001 72.552619 5.794528 -0.635419 0.000016 -0.000003 3.000009 -4.999620 7.998699 0.000016 -0.293495 -176.959041 9.783859 -179.999991 0.000005 -1.647998 140.487005 -8.166234 -4.465613 -0.000008 0.000000 0.709868 67.445161 6.814633 2.427746 25.456971 -7.352488 -0.000001 -15.057963 170.747011 1.505458 -0.000005 -0.000004 -0.915752 -13.519744 2.668822 1.165100 -0.000003 -0.000001 -0.188758 69.850419 -6.862639 -2.140322 25.456960 7.355615 -0.000011 
59.837601 -14.065613 99.337509 -8.183465 0.761150 95.313562 -0.509643 0.567031 0.772485 2.976108 1.139670 1.546373 4.621077 1.158113 1.532628 0.088422 25.116376 -7.520514 5.848208 -29.950991 -7.017417 -0.382078 -28.281568 4.124443 112.907248 3.575895 119.894859 -0.000009 -0.000004 -0.000010 33.424381 7.298948 -0.066145 0.000006 0.000002 -3.008960 -4.999630 -7.998741 -0.000074 -29.237359 67.409439 33.998831 93.423970 64.761709 -88.200862 0.000001 -0.000006 -0.000000 72.193296 5.874412 -0.697752 0.000017 -0.000002 3.000010 -4.999624 7.998700 0.000016 -0.354466 -176.920054 9.756595 -179.999991 0.000006 -1.648994 140.415425 -8.087621 -4.448006 -0.000004 -0.000001 0.710187 67.434444 6.815303 2.427344 25.456960 -7.352467 0.000012 -15.071000 170.768868 1.505929 -0.000003 -0.000004 -0.915922 -13.583364 2.673087 1.168707 -0.000003 -0.000001 -0.189775 69.858717 -6.862397 -2.140367 25.456959 7.355613 -0.000010 
59.850601 -14.062613 99.330406 -8.169279 0.736706 95.353156 -0.500086 0.563411 0.773867 2.995255 1.132031 1.549261 4.640218 1.150519 1.535606 0.165440 25.147011 -7.537236 5.810511 -29.970208 -7.028493 -0.356613 -28.258041 4.164679 112.979955 3.667619 120.030630 -0.000007 -0.000010 -0.000009 33.226596 7.411389 -0.057040 0.000008 0.000003 -3.008960 -4.999635 -7.998738 -0.000077 -29.264099 67.419500 34.028323 93.394026 64.928304 -88.399744 0.000001 -0.000006 -0.000001 71.824227 5.956339 -0.760401 0.000016 -0.000004 3.000009 -4.999623 7.998700 0.000017 -0.414677 -176.884086 9.726169 -179.999991 0.000005 -1.648994 140.346345 -8.007101 -4.427955 -0.000007 -0.000000 0.710348 67.424178 6.816014 2.426821 25.456962 -7.352441 0.000007 -15.083472 170.789700 1.505807 -0.000004 -0.000005 -0.916094 -13.646592 2.678039 1.172381 -0.000003 -0.000001 -0.190776 69.866797 -6.862181 -2.140328 25.456957 7.355613 -0.000010 
59.879902 -14.056913 99.318214 -8.155355 0.712081 95.392840 -0.490674 0.559662 0.775178 3.014120 1.124092 1.551975 4.659087 1.142601 1.538418 0.244416 25.176199 -7.554261 5.771996 -29.987864 -7.039596 -0.333038 -28.233495 4.202435 113.049227 3.756973 120.158792 -0.000008 -0.000007 -0.000006 33.025904 7.520569 -0.047151 0.000006 -0.000001 -3.008962 -4.999632 -7.998738 -0.000074 -29.289904 67.429075 34.056812 93.366316 65.094517 -88.602566 0.000000 -0.000004 -0.000001 71.447139 6.039872 -0.823093 0.000016 -0.000004 3.000010 -4.999624 7.998699 0.000015 -0.474003 -176.850113 9.692763 -179.999991 0.000005 -1.650005 140.279641 -7.926986 -4.409384 -0.000007 -0.000000 0.710374 67.414165 6.816857 2.426111 25.456962 -7.352413 0.000006 -15.095300 170.811488 1.505112 -0.000003 -0.000004 -0.916269 -13.709024 2.683189 1.176069 -0.000003 -0.000001 -0.191766 69.874871 -6.861928 -2.140384 25.456957 7.355614 -0.000010 
59.917202 -14.048815 99.314705 -8.141672 0.687312 95.432831 -0.481405 0.555800 0.776409 3.032705 1.115885 1.554504 4.677669 1.134430 1.541044 0.325194 25.203547 -7.571585 5.732550 -30.003549 -7.050791 -0.311231 -28.208348 4.237812 113.115152 3.843483 120.280615 -0.000008 -0.000007 -0.000008 32.824110 7.626345 -0.036583 0.000007 0.000003 -3.008962 -4.999632 -7.998736 -0.000078 -29.314697 67.438091 34.084133 93.341816 65.260620 -88.809405 0.000001 -0.000005 -0.000001 71.063863 6.124483 -0.885373 0.000016 -0.000003 3.000010 -4.999621 7.998700 0.000017 -0.532307 -176.820156 9.656551 -179.999991 0.000005 -1.650004 140.215615 -7.844974 -4.388349 -0.000006 -0.000001 0.710290 67.404548 6.817671 2.425371 25.456962 -7.352396 0.000008 -15.106662 170.832279 1.504926 -0.000004 -0.000004 -0.916447 -13.770852 2.688068 1.179747 -0.000003 -0.000001 -0.192753 69.882848 -6.861704 -2.140450 25.456955 7.355614 -0.000011 
59.936905 -14.044518 99.300415 -8.128208 0.662432 95.473006 -0.472270 0.551848 0.777548 3.051020 1.107497 1.556814 4.695977 1.126058 1.543456 0.407619 25.228743 -7.589168 5.692082 -30.017172 -7.062102 -0.291083 -28.183189 4.270867 113.177498 3.926281 120.396332 -0.000009 -0.000005 -0.000009 32.623220 7.728526 -0.025442 0.000007 0.000005 -3.008958 -4.999633 -7.998735 -0.000077 -29.337408 67.446629 34.109200 93.320786 65.426628 -89.019529 0.000000 -0.000005 -0.000001 70.676257 6.209610 -0.946917 0.000016 -0.000003 3.000010 -4.999622 7.998700 0.000017 -0.589458 -176.792166 9.617674 -179.999991 0.000005 -1.651002 140.154129 -7.763404 -4.367807 -0.000007 -0.000001 0.710119 67.395164 6.818542 2.424426 25.456960 -7.352372 0.000004 -15.117275 170.854013 1.505246 -0.000004 -0.000004 -0.916626 -13.831770 2.692194 1.183361 -0.000003 -0.000001 -0.193742 69.890833 -6.861479 -2.140616 25.456957 7.355614 -0.000011 
59.948997 -14.040119 99.296005 -8.114904 0.637474 95.513796 -0.463269 0.547825 0.778587 3.069065 1.098961 1.558901 4.714017 1.117557 1.545632 0.491535 25.251588 -7.607005 5.650499 -30.028636 -7.073513 -0.272478 -28.158230 4.301689 113.236176 4.004861 120.507077 -0.000009 -0.000007 -0.000010 32.425131 7.826910 -0.013845 0.000005 0.000004 -3.008962 -4.999632 -7.998739 -0.000075 -29.357775 67.454293 34.131640 93.303792 65.592711 -89.232542 0.000001 -0.000004 -0.000001 70.286137 6.294714 -1.007303 0.000016 -0.000004 3.000011 -4.999621 7.998699 0.000017 -0.645327 -176.767222 9.576306 -179.999991 0.000005 -1.651001 140.095567 -7.681508 -4.346045 -0.000005 -0.000000 0.709891 67.385997 6.819433 2.423471 25.456953 -7.352342 -0.000000 -15.127378 170.875719 1.506902 -0.000005 -0.000004 -0.916810 -13.891675 2.695093 1.186870 -0.000003 -0.000001 -0.194739 69.899008 -6.861226 -2.140767 25.456957 7.355615 -0.000011 
59.974701 -14.033821 99.274010 -8.101735 0.612486 95.555084 -0.454402 0.543747 0.779510 3.086859 1.090344 1.560723 4.731807 1.108958 1.547563 0.576783 25.271883 -7.625057 5.607695 -30.037649 -7.085084 -0.255302 -28.134067 4.330362 113.291221 4.077948 120.611988 -0.000008 -0.000008 -0.000010 32.231950 7.921334 -0.001973 0.000007 0.000006 -3.008961 -4.999630 -7.998738 -0.000077 -29.375021 67.461157 34.150635 93.291197 65.759067 -89.447857 0.000001 -0.000004 -0.000001 69.895095 6.379217 -1.066216 0.000016 -0.000003 3.000010 -4.999622 7.998700 0.000017 -0.699774 -176.746239 9.532640 -179.999991 0.000006 -1.651002 140.039929 -7.599294 -4.324099 -0.000005 -0.000001 0.709626 67.377139 6.820318 2.422398 25.456950 -7.352323 0.000004 -15.136842 170.898368 1.510171 -0.000004 -0.000004 -0.916998 -13.950556 2.696280 1.190231 -0.000003 -0.000001 -0.195752 69.907321 -6.861038 -2.140820 25.456959 7.355615 -0.000011 
60.018501 -14.033321 99.279007 -8.088679 0.587502 95.597090 -0.445654 0.539635 0.780309 3.104394 1.081710 1.562267 4.749337 1.100349 1.549207 0.663204 25.289119 -7.643298 5.563598 -30.044008 -7.096812 -0.239440 -28.111197 4.356944 113.342201 4.145786 120.714277 -0.000009 -0.000007 -0.000007 32.045588 8.011595 0.010045 0.000007 0.000005 -3.008959 -4.999629 -7.998740 -0.000074 -29.388883 67.467031 34.165853 93.283753 65.925683 -89.665275 0.000001 -0.000005 0.000001 69.505180 6.462511 -1.123490 0.000017 -0.000004 3.000011 -4.999621 7.998700 0.000016 -0.752668 -176.727279 9.486816 -179.999991 0.000004 -1.651999 139.987323 -7.517542 -4.301594 -0.000008 -0.000001 0.709350 67.368471 6.821148 2.421302 25.456955 -7.352297 -0.000000 -15.145605 170.922916 1.515324 -0.000004 -0.000005 -0.917191 -14.008212 2.695296 1.193396 -0.000003 -0.000001 -0.196785 69.915934 -6.860831 -2.140848 25.456955 7.355613 -0.000010 
60.037201 -14.027517 99.286118 -8.075681 0.562556 95.639915 -0.437034 0.535506 0.780973 3.121687 1.073124 1.563517 4.766626 1.091771 1.550557 0.750642 25.303199 -7.661691 5.518109 -30.047720 -7.108718 -0.224781 -28.089921 4.381526 113.389377 4.207150 120.813069 -0.000007 -0.000008 -0.000007 31.867853 8.097530 0.022043 0.000008 0.000008 -3.008957 -4.999630 -7.998741 -0.000076 -29.398398 67.471880 34.176293 93.281861 66.092865 -89.884258 0.000001 -0.000005 -0.000001 69.117970 6.543971 -1.178643 0.000017 -0.000004 3.000010 -4.999621 7.998699 0.000016 -0.803879 -176.710326 9.438987 -179.999991 0.000004 -1.651999 139.938036 -7.435485 -4.277848 -0.000007 -0.000001 0.709087 67.359913 6.821948 2.420293 25.456952 -7.352271 0.000007 -15.153729 170.948406 1.523181 -0.000004 -0.000005 -0.917388 -14.064536 2.691647 1.196307 -0.000003 -0.000001 -0.197846 69.924881 -6.860627 -2.140860 25.456959 7.355614 -0.000009 
60.061298 -14.014818 99.278511 -8.062686 0.537698 95.683669 -0.428534 0.531380 0.781491 3.138742 1.064631 1.564444 4.783686 1.083284 1.551579 0.838932 25.313823 -7.680213 5.471125 -30.048475 -7.120831 -0.211205 -28.070836 4.404187 113.432449 4.261095 120.908514 -0.000008 -0.000007 -0.000007 31.700950 8.178926 0.033812 0.000005 0.000007 -3.008957 -4.999631 -7.998735 -0.000075 -29.403257 67.475452 34.181528 93.286109 66.260485 -90.104422 0.000001 -0.000003 -0.000001 68.735383 6.622966 -1.231641 0.000016 -0.000003 3.000010 -4.999619 7.998698 0.000017 -0.853270 -176.697363 9.389348 -179.999991 0.000005 -1.651999 139.891987 -7.354680 -4.255195 -0.000005 -0.000001 0.708865 67.351532 6.822692 2.419164 25.456950 -7.352254 0.000009 -15.161065 170.975781 1.534002 -0.000004 -0.000004 -0.917588 -14.119521 2.684859 1.198923 -0.000003 -0.000001 -0.198940 69.934252 -6.860435 -2.140947 25.456959 7.355613 -0.000011 
60.088406 -14.013216 99.257217 -8.049666 0.512957 95.728441 -0.420153 0.527276 0.781850 3.155557 1.056287 1.565019 4.800507 1.074956 1.552268 0.927915 25.320597 -7.698816 5.422552 -30.046088 -7.133166 -0.198600 -28.054261 4.425008 113.471428 4.307530 121.002634 -0.000009 -0.000005 -0.000009 31.546701 8.255631 0.045165 0.000006 0.000006 -3.008962 -4.999632 -7.998739 -0.000076 -29.402964 67.477836 34.181040 93.296662 66.428849 -90.324962 0.000001 -0.000004 0.000000 68.359142 6.698808 -1.282152 0.000017 -0.000003 3.000009 -4.999622 7.998699 0.000018 -0.900707 -176.687404 9.338059 -179.999991 0.000005 -1.652996 139.849380 -7.274353 -4.231975 -0.000004 -0.000000 0.708703 67.343240 6.823328 2.418205 25.456952 -7.352225 0.000006 -15.167856 171.004113 1.548632 -0.000005 -0.000004 -0.917796 -14.172959 2.674474 1.201191 -0.000003 -0.000001 -0.200074 69.944149 -6.860258 -2.140904 25.456957 7.355615 -0.000011 
60.102699 -14.013212 99.254715 -8.036914 0.488346 95.774449 -0.411893 0.523063 0.782020 3.172121 1.047832 1.565171 4.817066 1.066511 1.552519 1.019406 25.323092 -7.717735 5.370341 -30.039650 -7.146176 -0.187799 -28.038572 4.443146 113.506030 4.345537 121.091563 -0.000009 -0.000004 -0.000007 31.401825 8.326013 0.056109 0.000005 0.000001 -3.008960 -4.999635 -7.998735 -0.000075 -29.397974 67.478499 34.175412 93.316292 66.598190 -90.548856 0.000002 -0.000004 -0.000000 67.985053 6.772721 -1.331221 0.000017 -0.000003 3.000010 -4.999619 7.998700 0.000018 -0.946471 -176.681462 9.283616 -179.999991 0.000006 -1.652996 139.810694 -7.194542 -4.208135 -0.000006 -0.000000 0.708561 67.335160 6.823988 2.417037 25.456943 -7.352208 0.000006 -15.173815 171.035300 1.566805 -0.000004 -0.000004 -0.918007 -14.224652 2.660059 1.203066 -0.000003 -0.000001 -0.201250 69.954463 -6.860055 -2.140831 25.456959 7.355614 -0.000010 
